<svg id="visual" viewBox="0 0 900 600" width="900" height="600" xmlns="http://www.w3.org/2000/svg" xmlns:xlink="http://www.w3.org/1999/xlink" version="1.1"><rect x="0" y="0" width="900" height="600" fill="#0F0F0F"></rect><defs><linearGradient id="grad1_0" x1="33.3%" y1="0%" x2="100%" y2="100%"><stop offset="20%" stop-color="#272727" stop-opacity="1"></stop><stop offset="80%" stop-color="#272727" stop-opacity="1"></stop></linearGradient></defs><defs><linearGradient id="grad1_1" x1="33.3%" y1="0%" x2="100%" y2="100%"><stop offset="20%" stop-color="#272727" stop-opacity="1"></stop><stop offset="80%" stop-color="#242424" stop-opacity="1"></stop></linearGradient></defs><defs><linearGradient id="grad1_2" x1="33.3%" y1="0%" x2="100%" y2="100%"><stop offset="20%" stop-color="#202020" stop-opacity="1"></stop><stop offset="80%" stop-color="#242424" stop-opacity="1"></stop></linearGradient></defs><defs><linearGradient id="grad1_3" x1="33.3%" y1="0%" x2="100%" y2="100%"><stop offset="20%" stop-color="#202020" stop-opacity="1"></stop><stop offset="80%" stop-color="#1d1d1d" stop-opacity="1"></stop></linearGradient></defs><defs><linearGradient id="grad1_4" x1="33.3%" y1="0%" x2="100%" y2="100%"><stop offset="20%" stop-color="#1a1a1a" stop-opacity="1"></stop><stop offset="80%" stop-color="#1d1d1d" stop-opacity="1"></stop></linearGradient></defs><defs><linearGradient id="grad1_5" x1="33.3%" y1="0%" x2="100%" y2="100%"><stop offset="20%" stop-color="#1a1a1a" stop-opacity="1"></stop><stop offset="80%" stop-color="#171717" stop-opacity="1"></stop></linearGradient></defs><defs><linearGradient id="grad1_6" x1="33.3%" y1="0%" x2="100%" y2="100%"><stop offset="20%" stop-color="#131313" stop-opacity="1"></stop><stop offset="80%" stop-color="#171717" stop-opacity="1"></stop></linearGradient></defs><defs><linearGradient id="grad1_7" x1="33.3%" y1="0%" x2="100%" y2="100%"><stop offset="20%" stop-color="#131313" stop-opacity="1"></stop><stop offset="80%" stop-color="#0f0f0f" stop-opacity="1"></stop></linearGradient></defs><defs><linearGradient id="grad2_0" x1="0%" y1="0%" x2="66.7%" y2="100%"><stop offset="20%" stop-color="#272727" stop-opacity="1"></stop><stop offset="80%" stop-color="#272727" stop-opacity="1"></stop></linearGradient></defs><defs><linearGradient id="grad2_1" x1="0%" y1="0%" x2="66.7%" y2="100%"><stop offset="20%" stop-color="#242424" stop-opacity="1"></stop><stop offset="80%" stop-color="#272727" stop-opacity="1"></stop></linearGradient></defs><defs><linearGradient id="grad2_2" x1="0%" y1="0%" x2="66.7%" y2="100%"><stop offset="20%" stop-color="#242424" stop-opacity="1"></stop><stop offset="80%" stop-color="#202020" stop-opacity="1"></stop></linearGradient></defs><defs><linearGradient id="grad2_3" x1="0%" y1="0%" x2="66.7%" y2="100%"><stop offset="20%" stop-color="#1d1d1d" stop-opacity="1"></stop><stop offset="80%" stop-color="#202020" stop-opacity="1"></stop></linearGradient></defs><defs><linearGradient id="grad2_4" x1="0%" y1="0%" x2="66.7%" y2="100%"><stop offset="20%" stop-color="#1d1d1d" stop-opacity="1"></stop><stop offset="80%" stop-color="#1a1a1a" stop-opacity="1"></stop></linearGradient></defs><defs><linearGradient id="grad2_5" x1="0%" y1="0%" x2="66.7%" y2="100%"><stop offset="20%" stop-color="#171717" stop-opacity="1"></stop><stop offset="80%" stop-color="#1a1a1a" stop-opacity="1"></stop></linearGradient></defs><defs><linearGradient id="grad2_6" x1="0%" y1="0%" x2="66.7%" y2="100%"><stop offset="20%" stop-color="#171717" stop-opacity="1"></stop><stop offset="80%" stop-color="#131313" stop-opacity="1"></stop></linearGradient></defs><defs><linearGradient id="grad2_7" x1="0%" y1="0%" x2="66.7%" y2="100%"><stop offset="20%" stop-color="#0f0f0f" stop-opacity="1"></stop><stop offset="80%" stop-color="#131313" stop-opacity="1"></stop></linearGradient></defs><g transform="translate(900, 0)"><path d="M0 486.7C-66.3 483.4 -132.7 480 -186.3 449.7C-239.9 419.4 -280.7 362.2 -309.7 309.7C-338.7 257.3 -355.9 209.6 -383.4 158.8C-410.9 108 -448.8 54 -486.7 0L0 0Z" fill="#111111"></path><path d="M0 425.9C-58 423 -116.1 420 -163 393.5C-209.9 367 -245.6 316.9 -271 271C-296.4 225.1 -311.4 183.4 -335.5 139C-359.6 94.5 -392.7 47.2 -425.9 0L0 0Z" fill="#151515"></path><path d="M0 365.1C-49.8 362.5 -99.5 360 -139.7 337.3C-179.9 314.5 -210.5 271.6 -232.3 232.3C-254 193 -266.9 157.2 -287.6 119.1C-308.2 81 -336.6 40.5 -365.1 0L0 0Z" fill="#181818"></path><path d="M0 304.2C-41.5 302.1 -82.9 300 -116.4 281.1C-149.9 262.1 -175.4 226.3 -193.6 193.6C-211.7 160.8 -222.4 131 -239.6 99.3C-256.8 67.5 -280.5 33.7 -304.2 0L0 0Z" fill="#1b1b1b"></path><path d="M0 243.4C-33.2 241.7 -66.3 240 -93.1 224.8C-119.9 209.7 -140.4 181.1 -154.9 154.9C-169.4 128.6 -177.9 104.8 -191.7 79.4C-205.5 54 -224.4 27 -243.4 0L0 0Z" fill="#1f1f1f"></path><path d="M0 182.5C-24.9 181.3 -49.8 180 -69.9 168.6C-89.9 157.3 -105.3 135.8 -116.1 116.1C-127 96.5 -133.5 78.6 -143.8 59.6C-154.1 40.5 -168.3 20.2 -182.5 0L0 0Z" fill="#222222"></path><path d="M0 121.7C-16.6 120.8 -33.2 120 -46.6 112.4C-60 104.8 -70.2 90.5 -77.4 77.4C-84.7 64.3 -89 52.4 -95.9 39.7C-102.7 27 -112.2 13.5 -121.7 0L0 0Z" fill="#252525"></path><path d="M0 60.8C-8.3 60.4 -16.6 60 -23.3 56.2C-30 52.4 -35.1 45.3 -38.7 38.7C-42.3 32.2 -44.5 26.2 -47.9 19.9C-51.4 13.5 -56.1 6.7 -60.8 0L0 0Z" fill="#272727"></path></g><g transform="translate(0, 600)"><path d="M0 -486.7C63.8 -469.1 127.6 -451.4 172.6 -416.7C217.6 -381.9 243.7 -330.1 292.7 -292.7C341.7 -255.4 413.6 -232.6 449.7 -186.3C485.8 -139.9 486.3 -70 486.7 0L0 0Z" fill="#111111"></path><path d="M0 -425.9C55.8 -410.5 111.7 -395 151 -364.6C190.4 -334.2 213.3 -288.8 256.1 -256.1C299 -223.5 361.9 -203.6 393.5 -163C425.1 -122.4 425.5 -61.2 425.9 0L0 0Z" fill="#151515"></path><path d="M0 -365.1C47.9 -351.8 95.7 -338.6 129.4 -312.5C163.2 -286.4 182.8 -247.5 219.6 -219.6C256.3 -191.6 310.2 -174.5 337.3 -139.7C364.4 -104.9 364.7 -52.5 365.1 0L0 0Z" fill="#181818"></path><path d="M0 -304.2C39.9 -293.2 79.8 -282.1 107.9 -260.4C136 -238.7 152.3 -206.3 183 -183C213.6 -159.6 258.5 -145.4 281.1 -116.4C303.6 -87.4 303.9 -43.7 304.2 0L0 0Z" fill="#1b1b1b"></path><path d="M0 -243.4C31.9 -234.5 63.8 -225.7 86.3 -208.3C108.8 -191 121.9 -165 146.4 -146.4C170.9 -127.7 206.8 -116.3 224.8 -93.1C242.9 -70 243.1 -35 243.4 0L0 0Z" fill="#1f1f1f"></path><path d="M0 -182.5C23.9 -175.9 47.9 -169.3 64.7 -156.3C81.6 -143.2 91.4 -123.8 109.8 -109.8C128.2 -95.8 155.1 -87.2 168.6 -69.9C182.2 -52.5 182.4 -26.2 182.5 0L0 0Z" fill="#222222"></path><path d="M0 -121.7C16 -117.3 31.9 -112.9 43.1 -104.2C54.4 -95.5 60.9 -82.5 73.2 -73.2C85.4 -63.9 103.4 -58.2 112.4 -46.6C121.5 -35 121.6 -17.5 121.7 0L0 0Z" fill="#252525"></path><path d="M0 -60.8C8 -58.6 16 -56.4 21.6 -52.1C27.2 -47.7 30.5 -41.3 36.6 -36.6C42.7 -31.9 51.7 -29.1 56.2 -23.3C60.7 -17.5 60.8 -8.7 60.8 0L0 0Z" fill="#272727"></path></g></svg>